<?xml version="1.0"?>
<svg xmlns="http://www.w3.org/2000/svg" height="512px" viewBox="0 0 192 192" width="512px"><g><g id="_23-teamwork" data-name="23-teamwork"><g id="Glyph"><circle cx="152" cy="72" r="24" data-original="#000000" class="active-path" data-old_color="#000000" fill="#FFFFFF"/><circle cx="40" cy="72" r="24" data-original="#000000" class="active-path" data-old_color="#000000" fill="#FFFFFF"/><circle cx="96" cy="56" r="32" data-original="#000000" class="active-path" data-old_color="#000000" fill="#FFFFFF"/><path d="m176 104h-28.3a31.8 31.8 0 0 1 4.3 16v56h32a8 8 0 0 0 8-8v-48a16 16 0 0 0 -16-16z" data-original="#000000" class="active-path" data-old_color="#000000" fill="#FFFFFF"/><path d="m44.305 104h-28.305a16 16 0 0 0 -16 16v48a8 8 0 0 0 8 8h32v-56a31.8 31.8 0 0 1 4.305-16z" data-original="#000000" class="active-path" data-old_color="#000000" fill="#FFFFFF"/><path d="m120 88h-8l-16 48-16-48h-8a24 24 0 0 0 -24 24v72a8 8 0 0 0 8 8h80a8 8 0 0 0 8-8v-72a24 24 0 0 0 -24-24z" data-original="#000000" class="active-path" data-old_color="#000000" fill="#FFFFFF"/></g></g></g> </svg>
