<?xml version="1.0"?>
<svg xmlns="http://www.w3.org/2000/svg" height="512px" viewBox="0 0 192 192" width="512px"><g><path d="m152 56a40.209 40.209 0 0 0 -8.006.8q.006-.4.006-.8a56 56 0 0 0 -112 0c0 .267 0 .534.006.8a40 40 0 0 0 7.994 79.2h112a40 40 0 0 0 0-80zm-16 48h-96v-16h16v-16h16v16h8v-32h16v32h8v-48h16v48h16z" data-original="#000000" class="active-path" data-old_color="#000000" fill="#FFFFFF"/><path d="m72 168.566v-24.566h-16v24.566l-11.76-7.35-8.48 13.568 24 15a8 8 0 0 0 8.48 0l24-15-8.48-13.568z" data-original="#000000" class="active-path" data-old_color="#000000" fill="#FFFFFF"/><path d="m123.76 146.216-24 15 8.48 13.568 11.76-7.35v24.566h16v-24.566l11.76 7.35 8.48-13.568-24-15a8 8 0 0 0 -8.48 0z" data-original="#000000" class="active-path" data-old_color="#000000" fill="#FFFFFF"/></g> </svg>
