<?xml version="1.0"?>
<svg xmlns="http://www.w3.org/2000/svg" height="512px" viewBox="0 0 192 192" width="512px"><g><path d="m16 176v-136h-16v144a8 8 0 0 0 8 8h184v-16z" data-original="#000000" class="active-path" data-old_color="#000000" fill="#FFFFFF"/><path d="m72 112a8 8 0 0 0 -8-8h-24a8 8 0 0 0 -8 8v56h40z" data-original="#000000" class="active-path" data-old_color="#000000" fill="#FFFFFF"/><path d="m128 80a8 8 0 0 0 -8-8h-24a8 8 0 0 0 -8 8v88h40z" data-original="#000000" class="active-path" data-old_color="#000000" fill="#FFFFFF"/><path d="m184 48a8 8 0 0 0 -8-8h-24a8 8 0 0 0 -8 8v120h40z" data-original="#000000" class="active-path" data-old_color="#000000" fill="#FFFFFF"/></g> </svg>
